<?xml version="1.0" standalone="no"?>
<!DOCTYPE svg PUBLIC "-//W3C//DTD SVG 20010904//EN"
 "http://www.w3.org/TR/2001/REC-SVG-20010904/DTD/svg10.dtd">
<svg version="1.0" xmlns="http://www.w3.org/2000/svg"
 width="512.000000pt" height="512.000000pt" viewBox="0 0 512.000000 512.000000"
 preserveAspectRatio="xMidYMid meet">

<g transform="translate(0.000000,512.000000) scale(0.100000,-0.100000)"
fill="#FAFAFA" stroke="none">
<path d="M81 5002 c-100 -50 -106 -186 -12 -249 33 -23 39 -23 317 -23 l284 0
5 -22 c3 -13 172 -745 375 -1628 279 -1209 376 -1612 392 -1636 47 -69 -72
-64 1599 -64 1367 0 1514 2 1545 16 37 18 68 62 79 111 9 45 -24 117 -67 143
-33 20 -45 20 -1475 20 -1364 0 -1442 1 -1447 18 -12 37 -106 454 -106 468 0
12 206 14 1503 14 1472 0 1503 0 1534 20 18 10 39 33 48 50 26 50 468 2030
461 2068 -7 44 -39 86 -80 106 -31 15 -208 16 -2014 16 l-1980 0 -27 118 c-73
319 -94 395 -117 419 -49 53 -51 53 -430 53 -316 0 -357 -2 -387 -18z m4702
-869 c2 -5 -81 -381 -184 -838 -104 -456 -188 -831 -189 -833 0 -1 -656 -1
-1457 0 l-1458 3 -192 830 c-105 457 -192 833 -192 838 -1 9 3667 9 3672 0z"/>
<path d="M2038 1165 c-190 -48 -356 -216 -398 -400 -15 -64 -15 -186 0 -250
31 -137 151 -290 277 -354 173 -87 387 -78 538 23 219 146 306 407 216 647
-55 144 -181 268 -326 320 -78 27 -227 34 -307 14z m217 -295 c48 -19 104 -71
129 -121 111 -223 -147 -449 -354 -310 -176 118 -130 382 78 437 45 12 105 9
147 -6z"/>
<path d="M3806 1164 c-133 -32 -278 -146 -343 -270 -113 -213 -75 -462 97
-634 213 -213 542 -214 754 -4 35 35 78 88 95 118 38 66 71 190 71 266 0 76
-33 200 -71 266 -17 30 -60 83 -95 118 -134 133 -323 185 -508 140z m195 -288
c48 -8 112 -56 146 -108 25 -38 28 -52 28 -128 0 -76 -3 -90 -27 -127 -51 -78
-118 -115 -209 -115 -109 0 -203 69 -233 173 -20 65 -20 73 0 138 16 56 69
123 117 147 32 17 104 33 127 29 8 -2 31 -6 51 -9z"/>
</g>
</svg>
