<?xml version="1.0" standalone="no"?>
<!DOCTYPE svg PUBLIC "-//W3C//DTD SVG 20010904//EN"
 "http://www.w3.org/TR/2001/REC-SVG-20010904/DTD/svg10.dtd">
<svg version="1.0" xmlns="http://www.w3.org/2000/svg"
 width="512.000000pt" height="512.000000pt" viewBox="0 0 512.000000 512.000000"
 preserveAspectRatio="xMidYMid meet">

<g transform="translate(0.000000,512.000000) scale(0.100000,-0.100000)"
fill="#FAFAFA" stroke="none">
<path d="M1215 5105 c-570 -80 -1029 -490 -1169 -1045 -14 -52 -29 -135 -35
-185 -15 -124 -15 -2506 0 -2630 69 -583 484 -1057 1049 -1199 52 -14 136 -29
185 -35 124 -15 2506 -15 2630 0 525 62 964 405 1155 901 31 81 67 233 79 333
15 124 15 2506 0 2630 -62 525 -405 964 -901 1155 -81 31 -233 67 -333 79
-137 17 -2541 13 -2660 -4z m2617 -296 c516 -56 921 -461 977 -977 15 -143 15
-2401 0 -2544 -56 -516 -461 -921 -977 -977 -143 -15 -2401 -15 -2544 0 -516
56 -921 461 -977 977 -15 143 -15 2401 0 2544 27 245 125 459 294 637 178 188
423 312 670 340 123 13 2432 13 2557 0z"/>
<path d="M3913 4451 c-149 -51 -258 -182 -284 -342 -25 -159 48 -322 186 -413
89 -59 193 -83 294 -67 164 26 299 142 346 297 20 66 19 188 -2 250 -44 130
-148 234 -277 277 -66 23 -195 21 -263 -2z m197 -297 c105 -63 61 -227 -61
-227 -68 0 -122 54 -122 122 0 93 103 152 183 105z"/>
<path d="M2330 3945 c-160 -28 -335 -91 -465 -167 -443 -258 -705 -712 -705
-1218 1 -382 141 -722 410 -990 268 -269 609 -410 990 -410 381 0 722 141 990
410 269 268 410 609 410 990 0 381 -141 722 -410 990 -211 212 -473 346 -770
395 -104 18 -347 17 -450 0z m416 -300 c527 -92 914 -551 914 -1085 0 -605
-495 -1100 -1100 -1100 -605 0 -1100 495 -1100 1100 0 679 619 1201 1286 1085z"/>
</g>
</svg>
