<?xml version="1.0" standalone="no"?>
<!DOCTYPE svg PUBLIC "-//W3C//DTD SVG 20010904//EN"
 "http://www.w3.org/TR/2001/REC-SVG-20010904/DTD/svg10.dtd">
<svg version="1.0" xmlns="http://www.w3.org/2000/svg"
 width="512.000000pt" height="512.000000pt" viewBox="0 0 512.000000 512.000000"
 preserveAspectRatio="xMidYMid meet">

<g transform="translate(0.000000,512.000000) scale(0.100000,-0.100000)"
fill="#909196" stroke="none">
<path d="M0 2560 l0 -1750 2560 0 2560 0 0 1750 0 1750 -2560 0 -2560 0 0
-1750z m4560 1446 c0 -7 -1992 -1741 -2000 -1741 -8 0 -2000 1734 -2000 1741
0 2 900 4 2000 4 1100 0 2000 -2 2000 -4z m-3485 -850 c303 -264 553 -482 557
-485 4 -4 -294 -308 -662 -676 l-670 -670 0 1253 0 1253 113 -98 c61 -55 360
-314 662 -577z m3743 -1201 l-3 -625 -667 667 -667 668 667 581 667 580 3
-623 c1 -343 1 -904 0 -1248z m-2604 208 c185 -161 340 -293 346 -293 6 0 161
132 346 293 185 160 339 293 342 295 4 1 311 -302 682 -673 l675 -675 -2045 0
-2045 0 675 675 c371 371 678 674 682 673 3 -2 157 -135 342 -295z"/>
</g>
</svg>
